<?xml version="1.0" standalone="no"?>
<!DOCTYPE svg PUBLIC "-//W3C//DTD SVG 20010904//EN"
 "http://www.w3.org/TR/2001/REC-SVG-20010904/DTD/svg10.dtd">
<svg version="1.0" xmlns="http://www.w3.org/2000/svg"
 width="1280.000000pt" height="902.000000pt" viewBox="0 0 1280.000000 902.000000"
 preserveAspectRatio="xMidYMid meet">
<metadata>
Created by potrace 1.15, written by Peter Selinger 2001-2017
</metadata>
<g transform="translate(0.000000,902.000000) scale(0.100000,-0.100000)"
fill="#000000" stroke="none">
<path id="path1" d="M5874 7921 c-23 -10 -51 -34 -64 -52 -13 -19 -25 -35 -26 -37 -1 -2
-23 4 -48 12 -62 21 -99 20 -147 -4 -50 -26 -79 -86 -86 -179 -6 -86 1 -117
42 -186 19 -31 35 -59 35 -61 0 -2 -21 -9 -46 -15 -49 -13 -235 -131 -343
-218 -36 -28 -113 -99 -173 -156 -79 -77 -150 -132 -265 -208 -190 -125 -197
-129 -326 -173 -160 -55 -324 -141 -380 -198 -38 -38 -107 -123 -134 -165 -1
-2 -93 15 -205 38 -227 46 -701 129 -910 160 -75 11 -219 23 -320 27 -109 3
-211 12 -251 21 -110 26 -562 11 -725 -23 -18 -4 -22 -9 -17 -24 10 -33 -18
-24 -56 18 -32 35 -90 143 -207 392 -50 104 -171 287 -257 387 -38 44 -66 62
-192 124 -82 40 -164 85 -183 99 -70 54 -120 72 -211 78 -72 4 -86 7 -85 21 1
9 -8 17 -21 19 -56 8 -75 -107 -63 -383 14 -328 73 -518 202 -647 l57 -57 -52
-17 c-70 -23 -97 -44 -150 -113 -108 -144 -171 -319 -148 -409 6 -20 18 -68
27 -105 30 -120 97 -196 230 -262 32 -17 61 -31 63 -32 2 -1 -6 -26 -17 -55
-18 -48 -22 -80 -26 -233 -2 -87 25 -197 71 -289 30 -59 105 -141 150 -165
l33 -16 -60 -58 c-33 -32 -63 -70 -66 -85 -3 -15 -12 -47 -21 -71 -14 -38 -14
-55 -3 -130 16 -110 37 -165 94 -245 52 -73 112 -128 211 -196 141 -95 406
-213 551 -246 34 -8 160 -55 280 -105 121 -50 233 -96 249 -103 51 -19 109
-57 98 -64 -19 -13 -34 -51 -28 -74 5 -21 -9 -91 -50 -248 -9 -36 -19 -78 -21
-95 -16 -105 -45 -269 -48 -272 -1 -2 -13 39 -26 92 -24 98 -36 119 -67 113
-14 -3 -18 -14 -20 -58 -1 -55 -29 -258 -39 -293 -6 -18 -7 -17 -21 2 -8 12
-12 25 -9 29 7 12 -67 224 -90 258 -11 16 -25 40 -31 54 -70 153 -87 187 -96
199 -15 18 -37 79 -43 115 -6 43 -31 76 -58 76 -22 0 -23 -4 -30 -90 -4 -50
-11 -103 -17 -117 -5 -14 -21 -81 -35 -147 -14 -67 -29 -130 -34 -141 -4 -11
-13 -47 -20 -80 -13 -68 -52 -204 -82 -285 -24 -65 -43 -152 -59 -273 -12 -88
-13 -89 -31 -65 -9 12 -18 28 -18 34 0 6 -14 30 -31 53 -17 24 -53 86 -80 139
-75 144 -97 182 -129 218 -16 19 -47 60 -68 92 -22 32 -47 63 -55 70 -9 7 -39
53 -68 102 -29 49 -61 99 -71 110 -22 23 -65 23 -60 1 29 -135 52 -359 51
-506 0 -16 7 -59 15 -95 8 -36 22 -153 31 -260 9 -107 19 -217 22 -245 l4 -50
-51 85 c-28 47 -76 136 -106 198 -51 104 -58 113 -81 110 l-25 -3 2 -240 c1
-132 0 -267 -1 -300 -2 -33 -3 -82 -2 -110 7 -220 3 -529 -6 -538 -6 -6 -11
-16 -11 -23 0 -29 26 -31 150 -12 102 16 159 18 310 14 102 -2 201 -10 220
-16 66 -21 235 -31 620 -36 212 -2 491 -9 620 -15 129 -6 370 -14 535 -18 165
-5 368 -14 450 -21 133 -11 165 -11 285 5 179 23 537 31 704 16 275 -25 453
-30 575 -14 97 12 167 12 441 2 179 -7 699 -13 1155 -14 751 -2 1245 -9 1348
-21 21 -2 99 3 174 11 154 17 274 18 383 4 75 -9 365 -22 875 -39 335 -11 549
-26 595 -41 24 -9 135 -13 350 -14 173 -1 374 -7 445 -13 112 -10 249 -12 850
-8 138 0 368 -13 490 -30 140 -18 433 -33 463 -22 16 5 22 15 22 37 0 17 9 76
19 133 21 110 37 285 46 489 3 69 12 151 20 184 9 32 14 59 12 61 -6 6 -123
-58 -160 -87 -21 -17 -41 -28 -44 -25 -3 3 0 25 6 48 7 24 16 61 21 83 14 62
77 224 110 282 30 52 41 123 19 123 -20 0 -198 -121 -231 -158 -19 -21 -55
-72 -82 -115 -26 -42 -49 -77 -50 -77 -2 0 10 60 25 133 38 175 81 311 119
371 27 41 30 53 21 73 -6 13 -19 23 -32 23 -11 0 -73 -27 -136 -60 -64 -33
-118 -59 -120 -56 -3 2 19 33 49 68 83 98 121 154 183 268 31 58 77 135 101
172 43 64 44 68 38 122 -6 49 -10 57 -32 63 -24 6 -237 -27 -273 -42 -12 -5
-20 2 -28 26 -14 40 -121 231 -155 277 -35 47 -254 251 -290 269 -17 9 -91 54
-164 102 l-134 86 6 62 c19 189 -66 370 -225 479 -98 67 -180 94 -278 93 -155
-1 -289 -59 -420 -183 l-76 -72 -55 22 c-81 33 -177 51 -198 37 -21 -13 -18
-63 8 -116 l18 -38 -68 -46 c-38 -25 -71 -52 -75 -61 -10 -27 27 -51 104 -67
41 -8 81 -21 88 -27 11 -9 12 -37 7 -137 -5 -99 -2 -141 10 -196 33 -140 89
-229 171 -276 l52 -29 -13 -62 c-8 -35 -17 -119 -21 -188 -5 -98 -9 -117 -14
-85 -13 70 -10 199 7 254 18 63 14 81 -21 81 -30 0 -72 -54 -136 -173 l-41
-79 -34 129 c-18 70 -39 183 -46 251 -10 104 -15 123 -31 128 -11 3 -26 -1
-38 -11 -26 -24 -67 -165 -73 -256 -5 -71 -18 -146 -32 -196 -4 -15 0 -24 13
-31 36 -20 44 0 59 144 14 137 32 239 41 231 2 -3 11 -47 18 -98 8 -52 26
-127 40 -168 14 -41 32 -113 41 -160 9 -47 22 -101 30 -119 12 -30 65 -218 84
-302 5 -19 11 -46 15 -60 3 -14 8 -40 10 -59 2 -19 10 -50 18 -70 12 -30 43
-147 64 -238 5 -22 3 -23 -66 -23 l-72 0 4 46 c3 25 10 50 17 54 26 16 -11
128 -50 153 -15 9 -20 23 -20 55 0 118 -62 303 -154 457 -50 83 -91 139 -294
403 -54 71 -70 98 -63 110 14 26 29 142 41 312 6 85 18 196 25 246 13 82 141
514 180 607 12 30 13 42 4 53 -16 20 -48 18 -55 -3 -4 -10 -15 -36 -25 -58
-28 -60 -99 -233 -119 -290 -42 -122 -245 -499 -309 -575 -28 -33 -31 -34 -47
-18 -16 15 -16 18 0 33 11 12 16 34 16 76 0 37 17 123 46 236 48 186 73 291
78 333 2 14 10 43 19 65 34 90 78 247 73 261 -7 19 -40 18 -58 -3 -25 -30
-189 -342 -258 -493 -24 -52 -51 -106 -60 -120 -9 -14 -32 -48 -51 -77 -18
-29 -37 -49 -40 -45 -23 24 -29 278 -15 577 8 165 -3 294 -25 305 -27 15 -44
-9 -67 -97 -59 -229 -79 -321 -116 -523 -9 -47 -21 -103 -27 -124 l-11 -39
-19 29 c-10 16 -19 37 -19 47 0 9 -4 25 -9 35 -44 87 -97 241 -106 312 -5 32
-23 91 -45 145 -4 11 -13 39 -19 61 -14 51 -48 96 -69 92 -15 -3 -17 -31 -18
-238 -1 -159 -7 -277 -18 -365 -10 -71 -21 -162 -25 -201 -8 -77 -49 -206 -63
-198 -23 15 -62 133 -74 224 -19 148 -126 378 -198 425 -29 19 -59 10 -47 -14
21 -38 56 -495 45 -570 -6 -33 -9 -40 -14 -26 -6 20 -54 126 -71 157 -5 10 -9
22 -9 27 0 4 -12 30 -27 57 -15 27 -29 68 -30 94 -2 25 -6 51 -8 58 -5 15 -41
16 -50 2 -4 -6 -11 -102 -16 -213 -10 -208 -17 -302 -24 -325 -3 -8 -22 1 -57
29 l-52 41 1 146 c2 234 13 418 32 512 5 25 14 70 20 100 6 30 13 65 17 77 4
16 0 24 -16 33 -29 16 -43 2 -69 -69 -11 -32 -41 -89 -66 -127 -25 -37 -45
-73 -45 -79 0 -7 -9 -20 -21 -31 -12 -10 -44 -57 -72 -103 -28 -45 -53 -79
-55 -73 -1 5 -13 63 -26 128 -23 118 -23 119 -51 119 -25 0 -29 -5 -41 -50 -7
-27 -12 -52 -11 -55 1 -6 -84 -261 -119 -355 -14 -38 -24 -79 -21 -91 3 -20
-5 -24 -92 -47 -53 -14 -103 -28 -112 -32 -41 -16 -212 393 -245 587 -7 44
-25 62 -53 53 -16 -5 -20 -15 -20 -53 -1 -26 -3 -63 -6 -82 -2 -19 -9 -80 -14
-135 -8 -86 -20 -181 -37 -310 -2 -16 -11 -73 -20 -125 -9 -52 -16 -104 -16
-115 -1 -30 -163 -138 -188 -125 -40 21 -54 175 -33 344 9 73 10 103 2 113
-18 21 -39 15 -50 -14 -6 -16 -18 -41 -26 -57 -9 -15 -41 -78 -73 -140 -126
-245 -152 -292 -170 -311 -10 -11 -28 -44 -39 -72 -52 -133 -167 -326 -181
-304 -4 7 -8 38 -8 68 -1 128 -23 223 -51 223 -19 0 -174 -163 -240 -253 -40
-53 -81 -102 -92 -107 -18 -10 -19 -7 -20 42 -3 142 5 159 126 259 171 143
273 248 345 354 37 55 102 150 145 210 116 165 178 302 208 455 2 8 6 22 10
30 4 8 25 89 47 180 50 202 64 373 46 545 l-11 110 50 70 c61 85 103 176 112
241 4 27 5 98 4 158 -2 87 -9 132 -37 230 -18 66 -34 136 -34 154 0 43 44 167
75 212 14 20 25 41 25 46 0 7 22 8 63 3 120 -15 248 17 319 80 20 17 41 31 47
31 14 0 41 53 41 83 0 65 -70 213 -131 276 -38 39 -185 154 -208 163 -6 2 -6
23 1 58 23 122 -9 302 -81 456 l-39 81 23 29 c42 54 93 158 110 224 35 133 -7
274 -95 318 -74 37 -182 23 -256 -33 -19 -15 -36 -25 -37 -24 -1 2 -11 21 -22
43 -50 98 -211 147 -321 97z m202 -56 c55 -32 114 -124 114 -177 0 -42 11 -52
46 -44 19 5 24 13 24 37 0 54 98 119 180 119 51 0 99 -59 114 -140 17 -98 -46
-259 -142 -359 -68 -71 -119 -90 -262 -98 -113 -6 -199 12 -263 55 -23 16 -74
47 -113 70 -75 43 -116 78 -149 126 -11 16 -28 38 -38 48 -39 41 -40 192 -1
258 34 57 105 63 163 14 16 -13 32 -35 35 -49 5 -20 13 -25 37 -25 30 0 31 1
24 39 -19 116 119 192 231 126z m-5642 -349 c26 -8 75 -32 109 -55 34 -22 126
-72 204 -111 154 -77 169 -90 254 -218 28 -42 62 -88 74 -102 24 -27 130 -217
141 -253 4 -12 40 -88 82 -170 69 -137 107 -187 140 -187 23 0 22 -22 -1 -77
-31 -75 -42 -111 -61 -203 -9 -41 -21 -93 -27 -115 -13 -50 -38 -224 -37 -262
0 -15 -5 -66 -12 -113 -12 -88 -7 -305 10 -450 5 -41 10 -95 11 -120 2 -69 17
-162 50 -315 69 -319 104 -430 207 -650 71 -153 126 -244 209 -347 58 -73 54
-84 -18 -48 -22 12 -99 41 -172 67 -73 25 -153 56 -179 69 -25 13 -81 31 -125
40 -144 29 -312 110 -488 233 -81 57 -165 134 -165 152 0 6 -14 30 -30 54 -17
24 -33 59 -37 77 -3 18 -9 38 -13 43 -4 6 -6 49 -5 97 3 108 25 150 120 234
36 31 65 64 63 72 -2 8 -26 23 -55 33 -80 27 -162 127 -204 249 -19 56 -22 86
-22 207 1 141 1 143 33 204 38 74 44 65 -93 136 -150 78 -214 174 -223 337 -3
63 0 87 16 123 10 24 19 46 19 48 0 3 17 37 37 75 23 44 58 90 93 123 55 50
153 107 185 107 8 0 21 10 27 22 10 19 8 24 -17 42 -65 45 -194 206 -194 242
0 5 -6 20 -13 34 -12 22 -19 54 -43 174 -12 63 -19 182 -19 329 0 138 3 169
15 177 22 14 100 12 154 -4z m5254 -193 c95 -69 246 -152 307 -168 136 -36
272 -25 379 30 27 14 50 24 52 23 12 -13 70 -155 84 -208 18 -65 23 -260 8
-275 -4 -4 -28 3 -53 15 -55 27 -75 23 -137 -29 -98 -81 -175 -188 -206 -289
-15 -46 -8 -161 11 -198 30 -59 113 -117 205 -144 47 -15 51 -26 23 -79 -19
-35 -46 -111 -58 -161 -11 -48 -7 -115 9 -150 48 -105 76 -313 57 -429 -21
-138 -136 -309 -241 -359 -93 -45 -324 -54 -430 -17 -64 22 -139 106 -190 210
-35 70 -39 86 -35 132 6 54 -7 77 -47 85 -19 3 -24 -3 -50 -63 -22 -50 -106
-126 -174 -156 -163 -72 -392 -68 -550 10 -40 19 -53 34 -84 92 -105 196 -120
307 -59 433 29 59 32 73 21 86 -14 18 -50 22 -50 6 0 -24 -86 -54 -168 -58
-98 -5 -156 9 -206 50 -98 81 -193 256 -200 368 -4 57 9 110 27 110 5 0 6 4 2
9 -3 5 -1 12 5 16 5 3 10 15 10 26 0 10 7 19 15 19 8 0 15 6 15 13 0 8 15 30
33 49 17 19 50 56 71 82 32 38 63 58 170 110 72 35 158 72 191 81 65 18 173
71 245 120 25 17 70 43 100 59 76 40 176 113 225 162 82 84 250 234 262 234 7
0 17 9 23 20 6 11 17 20 24 20 8 0 19 7 26 16 34 39 221 131 276 133 6 1 34
-16 62 -36z m831 -669 c100 -58 250 -195 283 -259 34 -65 57 -141 47 -156 -14
-24 -314 32 -408 76 -79 38 -118 44 -127 20 -9 -22 12 -43 49 -50 18 -4 39
-13 47 -21 28 -24 91 -45 222 -73 71 -14 129 -31 130 -36 2 -18 -74 -53 -126
-59 -99 -13 -326 40 -394 91 -73 55 -94 171 -48 268 26 54 95 141 154 192 48
43 105 45 171 7z m-4289 -184 c19 -6 122 -13 229 -16 174 -4 226 -10 520 -60
418 -70 562 -97 744 -141 142 -33 148 -36 141 -57 -5 -11 -8 -59 -9 -106 0
-72 4 -94 27 -143 15 -31 40 -83 55 -115 15 -32 53 -84 87 -119 79 -80 133
-98 294 -98 l112 0 -7 -30 c-14 -52 -7 -177 11 -235 29 -89 114 -237 151 -266
42 -32 148 -69 235 -83 214 -35 442 20 546 131 l45 48 14 -35 c8 -19 15 -37
15 -41 0 -24 100 -171 141 -208 69 -62 119 -77 274 -83 145 -6 221 5 301 41
l52 24 7 -96 c17 -215 -11 -410 -95 -687 -10 -33 -26 -87 -35 -120 -25 -92
-80 -196 -190 -358 -55 -81 -115 -172 -133 -202 -60 -100 -382 -398 -479 -444
-34 -16 -95 -52 -135 -80 -63 -43 -96 -57 -239 -100 -92 -27 -236 -64 -320
-81 -147 -31 -166 -33 -414 -35 -143 -2 -298 0 -345 5 -126 13 -371 60 -394
76 -11 8 -31 14 -44 14 -12 0 -51 12 -85 26 -34 15 -107 42 -162 61 -102 36
-347 155 -488 238 -83 49 -247 170 -260 192 -4 7 -22 20 -40 29 -18 10 -63 47
-102 84 -38 37 -113 99 -165 137 -117 87 -177 153 -330 366 -138 193 -264 531
-340 917 -48 240 -77 594 -63 750 l6 75 8 -49 c5 -29 22 -70 45 -104 45 -68
189 -214 267 -271 70 -51 189 -109 240 -118 57 -9 53 -20 -9 -26 -103 -11
-165 -89 -172 -220 -9 -157 94 -257 353 -341 90 -29 288 -76 323 -76 12 0 22
-2 22 -5 0 -3 -30 -33 -66 -67 -36 -34 -72 -74 -80 -89 -49 -97 33 -254 165
-313 139 -62 260 -77 434 -52 48 7 87 10 87 8 0 -2 -5 -13 -12 -25 -51 -97 -8
-197 111 -256 81 -41 153 -56 266 -55 96 1 108 4 297 67 108 36 211 73 229 83
32 16 229 144 239 154 3 3 29 23 58 44 54 39 159 143 162 161 1 6 14 26 29 45
53 69 91 187 94 284 2 81 -14 123 -113 302 -52 93 -72 117 -270 316 -366 367
-558 534 -787 682 -99 64 -360 188 -463 221 -258 81 -416 109 -615 109 -142 1
-155 -1 -250 -31 -55 -18 -129 -37 -164 -43 -85 -15 -150 -42 -230 -95 -100
-67 -129 -95 -161 -160 l-30 -60 5 128 c4 71 11 141 16 155 6 15 23 81 39 147
15 66 46 168 69 227 23 59 41 114 41 122 0 21 34 26 240 36 197 9 398 5 450
-10z m323 -504 c369 -87 644 -225 977 -490 171 -137 252 -213 481 -451 63 -66
144 -147 180 -180 57 -53 73 -77 137 -205 47 -93 73 -157 73 -180 1 -45 -16
-145 -32 -190 -35 -101 -160 -240 -300 -333 -35 -24 -91 -62 -124 -85 -61 -43
-220 -114 -351 -157 -193 -64 -373 -72 -477 -22 -78 39 -101 67 -100 125 1 73
33 127 93 157 51 26 60 41 38 63 -17 17 -39 15 -90 -8 -59 -26 -212 -50 -317
-50 -213 0 -391 100 -408 229 -6 43 -5 43 69 116 85 81 154 120 246 137 65 12
81 27 55 54 -13 12 -27 15 -62 10 -25 -4 -92 -10 -149 -13 -91 -5 -112 -2
-185 20 -45 14 -109 30 -141 36 -63 12 -248 95 -303 137 -18 14 -42 43 -53 64
-49 97 1 239 96 270 41 14 213 18 307 7 57 -6 68 -5 74 8 10 28 -19 43 -114
60 -215 37 -399 112 -519 213 -90 75 -221 228 -235 272 -9 31 -7 43 19 102 42
92 122 155 264 208 42 15 236 72 353 104 11 3 103 3 205 1 155 -3 203 -7 293
-29z m6362 -1643 c-9 -185 -8 -538 1 -565 3 -11 15 -18 29 -18 l25 0 -24 -52
c-25 -59 -17 -57 -141 -37 -69 10 -91 10 -160 -4 -138 -29 -273 -116 -320
-208 -10 -19 -31 -50 -46 -69 -39 -49 -75 -141 -93 -239 -18 -92 -21 -248 -7
-299 5 -17 7 -32 3 -32 -3 0 -54 13 -112 29 -58 16 -123 33 -145 38 -22 5 -40
12 -39 16 26 177 26 212 -1 338 -14 68 -34 141 -44 161 -15 30 -16 39 -5 50
15 15 26 147 25 303 l-1 110 30 -55 c40 -75 105 -241 125 -320 19 -76 26 -85
53 -71 19 10 20 20 17 248 -3 249 -10 382 -25 446 -4 21 -4 37 1 37 14 0 99
-176 99 -204 0 -14 4 -35 9 -48 5 -13 17 -68 27 -123 13 -75 28 -121 62 -187
24 -48 49 -88 55 -88 29 1 57 42 57 84 0 13 8 44 18 68 11 24 22 79 26 123 4
44 14 125 23 180 17 114 22 182 23 310 0 50 3 110 7 134 6 44 6 44 19 19 7
-14 18 -59 25 -99 6 -41 21 -99 34 -129 61 -149 128 -338 142 -405 5 -27 14
-41 27 -43 27 -6 37 10 42 64 3 27 14 78 25 114 11 35 24 96 30 135 6 38 12
81 14 95 10 65 65 304 80 348 14 39 16 -6 10 -155z m406 -75 c-6 -19 -17 -65
-25 -104 -17 -83 -42 -186 -58 -234 -16 -50 -48 -200 -48 -227 0 -30 -32 -133
-42 -133 -12 0 -142 52 -152 61 -15 13 5 68 60 158 55 93 120 216 173 331 17
36 39 81 49 100 11 19 25 48 31 64 16 39 26 26 12 -16z m1532 -28 c122 -38
233 -144 277 -263 23 -64 34 -176 22 -237 -7 -42 -10 -45 -37 -42 -15 2 -32
-2 -36 -9 -11 -18 8 -49 30 -49 34 0 146 -42 186 -71 22 -15 72 -47 110 -70
100 -60 177 -123 280 -230 100 -103 180 -237 212 -350 22 -80 39 -89 107 -56
32 16 77 28 122 32 l71 7 1 -35 c1 -22 -9 -50 -27 -78 -15 -25 -51 -92 -81
-149 -60 -120 -53 -110 -184 -265 -140 -166 -158 -177 -457 -273 -164 -53
-292 -82 -366 -82 -66 0 -257 47 -344 84 -105 45 -254 142 -294 190 -73 90
-130 243 -141 376 -17 200 -6 334 35 438 26 67 20 83 -30 80 -51 -3 -101 38
-146 118 -57 102 -75 174 -68 284 7 116 21 197 41 247 39 92 192 264 302 340
117 81 278 105 415 63z m-3213 -95 c-5 -39 -11 -119 -14 -180 -19 -370 -18
-367 -35 -361 -17 5 -114 40 -119 42 -2 1 -12 41 -24 88 -18 79 -19 90 -5 119
8 18 18 43 22 57 13 43 56 122 109 200 28 41 54 84 59 94 13 34 16 12 7 -59z
m2480 -102 c30 -9 56 -17 58 -18 2 -2 -15 -31 -37 -65 -22 -34 -46 -78 -53
-96 -7 -19 -16 -34 -21 -34 -17 0 -107 35 -107 41 0 4 27 18 59 32 32 14 62
31 66 37 4 7 -10 29 -34 54 -22 23 -41 50 -41 59 0 19 5 18 110 -10z m-3449
-20 c6 -16 24 -75 41 -133 16 -58 55 -159 86 -224 42 -88 53 -121 43 -124 -7
-2 -67 -31 -134 -64 l-120 -59 8 128 c4 70 7 147 6 171 0 23 3 42 8 42 7 0 17
59 27 170 5 53 17 120 21 120 2 0 8 -12 14 -27z m692 -165 c20 -105 34 -194
31 -197 -3 -3 -48 -8 -100 -11 l-94 -5 0 33 c0 18 12 65 26 105 29 83 44 129
68 210 9 31 20 57 25 57 4 0 24 -86 44 -192z m2172 -38 c-8 -58 -16 -148 -20
-200 -5 -90 -40 -308 -50 -318 -2 -3 -45 32 -95 78 -101 92 -98 82 -35 170 18
25 42 63 54 85 12 22 30 54 41 70 10 17 19 38 19 47 1 9 4 18 9 20 4 2 25 38
46 80 22 43 41 77 42 75 1 -1 -4 -49 -11 -107z m-641 -220 c43 -11 119 -39
170 -64 77 -37 111 -62 221 -164 138 -128 153 -145 326 -376 222 -297 304
-448 344 -639 26 -118 19 -194 -32 -402 -30 -119 -80 -221 -140 -281 -70 -69
-211 -171 -298 -214 -94 -46 -296 -98 -370 -95 -81 4 -138 16 -173 37 -18 11
-36 18 -39 15 -3 -3 -22 10 -44 30 l-38 35 39 47 c21 25 59 80 84 121 25 41
57 94 71 116 62 101 52 221 -35 427 -69 163 -107 224 -181 291 -108 97 -356
242 -506 296 l-63 23 6 151 c7 180 21 241 79 363 121 249 324 348 579 283z
m-1372 -29 c201 -52 275 -138 309 -361 11 -74 7 -248 -6 -282 -6 -15 -20 -18
-89 -18 -197 0 -392 -42 -541 -115 -104 -51 -172 -104 -261 -205 -57 -65 -67
-83 -98 -178 -48 -147 -54 -174 -66 -287 -11 -110 0 -238 27 -308 9 -23 36
-77 60 -119 25 -43 42 -82 39 -87 -12 -19 -104 -43 -187 -48 -117 -8 -218 15
-292 65 -112 75 -217 164 -248 208 -51 75 -156 289 -183 372 -65 208 -57 351
29 522 35 71 184 287 241 352 68 76 170 163 266 228 99 66 348 190 383 190 12
0 28 6 34 14 13 15 104 43 206 61 111 21 288 18 377 -4z m-1272 -310 c0 -13 7
-32 16 -42 15 -17 12 -23 -47 -98 -268 -334 -338 -484 -326 -696 8 -136 26
-196 108 -364 123 -254 165 -311 305 -412 105 -76 188 -115 277 -130 97 -16
238 -7 305 20 29 11 54 21 56 21 3 0 48 -37 100 -83 211 -182 395 -243 781
-257 226 -8 263 -6 497 35 96 17 268 85 370 146 43 26 78 44 78 39 0 -19 80
-66 157 -92 180 -62 372 -32 625 99 160 82 283 186 345 291 24 40 27 42 71 41
26 -1 61 -4 77 -8 19 -4 52 0 90 12 47 15 79 18 147 14 94 -6 119 4 100 40 -5
10 -13 73 -17 141 -4 68 -11 138 -16 155 -5 18 -12 57 -15 87 -3 30 -15 89
-26 130 -10 41 -22 84 -24 95 -3 11 14 -16 38 -60 55 -104 167 -219 258 -265
36 -18 66 -34 68 -35 2 -1 -10 -31 -27 -66 -16 -35 -36 -89 -45 -119 -9 -30
-28 -93 -43 -140 -36 -111 -40 -113 -204 -100 -185 14 -228 13 -236 -7 -9 -24
49 -71 97 -79 48 -8 50 -18 10 -39 -32 -17 -41 -51 -15 -61 8 -3 58 1 112 10
223 36 250 37 344 19 74 -14 94 -15 127 -4 30 10 44 11 61 2 11 -7 21 -14 21
-16 0 -2 -21 -24 -47 -48 -41 -39 -46 -47 -34 -61 15 -18 5 -18 234 4 138 14
222 40 288 90 35 26 64 40 84 40 69 0 64 52 -8 71 -66 17 -73 28 -75 116 -1
43 -7 118 -13 166 -13 94 -4 137 27 137 14 0 147 39 314 92 36 11 86 31 112
44 26 13 55 24 65 24 9 0 79 29 156 65 77 36 142 64 144 61 3 -2 -5 -26 -17
-53 -12 -26 -26 -75 -31 -108 -6 -33 -21 -98 -34 -145 -33 -117 -78 -336 -72
-352 2 -7 -4 -24 -13 -38 -10 -14 -50 -83 -90 -155 -61 -109 -71 -134 -63
-155 7 -21 17 -26 63 -32 56 -7 226 -86 257 -120 33 -36 73 -8 73 50 0 20 11
100 24 177 38 218 35 207 63 200 18 -4 33 2 59 25 19 16 38 30 42 30 8 0 7
-257 -2 -378 -3 -46 -13 -110 -21 -143 -9 -33 -17 -79 -19 -103 -2 -24 -9 -59
-15 -79 -15 -45 -43 -52 -169 -44 -48 4 -171 11 -274 16 -103 6 -218 15 -255
22 -37 6 -108 10 -158 9 -49 -1 -283 -2 -520 -2 -343 0 -454 3 -548 16 -132
18 -278 20 -410 6 -73 -7 -103 -6 -175 10 -130 28 -274 40 -607 50 -165 5
-347 12 -405 16 -58 4 -175 8 -260 9 -85 1 -216 10 -291 20 -122 15 -152 16
-285 4 -163 -14 -212 -15 -834 -6 -589 8 -1442 9 -1487 1 -21 -3 -110 1 -198
10 -200 19 -600 23 -670 6 -36 -8 -111 -10 -270 -5 -121 4 -229 9 -240 12 -54
11 -433 14 -550 4 -227 -20 -423 -24 -599 -12 -254 17 -656 30 -1366 45 -580
13 -645 16 -745 36 -130 25 -426 32 -534 11 -35 -7 -67 -9 -71 -4 -8 8 -24
491 -20 607 0 33 3 123 4 200 6 239 0 222 48 141 63 -107 156 -304 170 -360
15 -64 25 -77 52 -69 12 4 22 8 24 9 1 1 -4 31 -12 66 -8 35 -18 132 -21 214
-4 83 -9 159 -12 170 -5 17 -12 75 -27 235 -2 25 -7 56 -10 69 -25 107 -48
507 -27 485 54 -57 238 -322 278 -399 28 -55 77 -143 107 -195 31 -52 62 -112
68 -134 21 -69 87 -86 89 -22 0 17 2 40 5 51 2 11 6 43 8 70 2 28 9 63 15 79
6 16 13 45 16 65 4 33 36 147 55 196 14 39 33 100 41 135 10 43 16 71 69 295
24 99 46 197 49 219 l6 39 57 -114 c32 -63 78 -167 103 -232 41 -108 115 -344
115 -369 0 -6 7 -16 15 -22 13 -10 13 -19 1 -76 -20 -94 -34 -199 -46 -335 -6
-66 -15 -148 -21 -181 -5 -34 -18 -169 -29 -300 -11 -132 -23 -252 -25 -269
-7 -42 16 -69 52 -62 43 9 417 140 513 180 47 19 164 70 260 112 96 42 247
106 335 140 228 91 255 104 256 123 3 35 1 58 -6 84 -6 25 -4 27 32 33 98 14
289 66 350 94 l68 32 48 -21 c54 -24 67 -25 223 -15 163 11 175 7 264 -84 82
-84 173 -138 249 -148 22 -3 41 -10 41 -15 0 -5 -10 -27 -22 -48 -21 -36 -22
-41 -7 -55 27 -27 90 -30 142 -7 42 19 46 24 62 78 19 66 15 115 -15 175 l-20
39 62 0 c56 0 68 -4 113 -36 40 -28 56 -34 83 -30 28 4 32 2 32 -19 0 -13 -11
-37 -25 -53 -45 -54 -11 -76 77 -50 48 14 81 46 95 92 10 31 8 43 -14 87 -14
28 -32 53 -39 56 -18 7 -18 53 -1 53 8 0 45 -11 83 -24 38 -13 101 -27 139
-31 39 -4 79 -13 91 -20 50 -32 213 -41 359 -20 37 6 44 3 94 -40 73 -63 93
-59 105 19 7 47 5 65 -8 93 -9 20 -15 37 -14 39 2 1 23 -2 47 -7 25 -5 57 -7
72 -4 15 3 52 -1 83 -10 63 -18 76 -15 76 21 0 74 -87 164 -158 164 -19 0 -38
10 -58 31 -47 50 -79 61 -205 70 -91 7 -135 6 -200 -6 -208 -37 -219 -38 -355
-25 -172 17 -180 22 -194 150 -6 51 -15 101 -21 111 -14 27 -3 39 35 39 37 0
121 23 163 45 15 8 35 15 44 15 9 0 38 8 65 19 95 36 125 43 164 36 36 -6 42
-4 88 39 l49 46 7 -46 c3 -26 6 -77 6 -113 0 -39 5 -72 12 -79 22 -22 53 -13
78 21 35 48 279 335 291 343 6 3 13 4 15 1 5 -5 26 -222 25 -262 0 -25 27 -55
49 -55 11 0 25 15 35 37 10 20 32 60 50 88 39 61 110 196 149 285 16 36 39 79
51 95 19 27 40 65 114 210 11 22 33 67 48 100 l28 60 7 -145 c5 -80 8 -156 8
-169z m-4139 212 c24 -20 71 -62 104 -93 33 -31 70 -62 82 -69 l23 -12 -24
-47 c-24 -49 -63 -173 -87 -277 l-13 -59 -12 42 c-11 36 -73 296 -118 490 -8
34 -11 62 -7 62 4 0 27 -17 52 -37z m-35 -278 c14 -60 30 -135 35 -165 14 -87
51 -234 62 -247 5 -7 20 -13 33 -13 18 0 24 5 24 23 0 25 82 357 99 401 6 16
14 27 17 24 8 -9 67 -302 66 -333 0 -16 -28 -93 -61 -171 -34 -77 -61 -152
-61 -166 0 -13 -3 -28 -7 -32 -8 -8 -35 -85 -129 -368 -38 -115 -72 -208 -75
-208 -3 0 -13 39 -22 88 -38 199 -104 445 -138 512 -8 16 -43 136 -53 181 -4
17 -1 31 9 39 9 7 15 30 15 54 0 22 5 59 10 81 5 22 14 83 20 135 6 52 26 151
44 220 19 69 37 139 41 155 7 28 9 26 26 -35 11 -36 31 -114 45 -175z m571
-134 c56 -33 129 -74 163 -91 36 -18 60 -36 57 -43 -3 -7 -28 -66 -55 -132
-27 -66 -57 -137 -67 -157 -19 -39 -35 -49 -35 -23 0 8 -4 23 -9 33 -6 9 -24
55 -42 102 -17 47 -44 119 -60 160 -16 42 -29 95 -29 119 0 45 -28 91 -55 91
-11 0 -35 -41 -35 -60 0 -5 -5 -21 -11 -37 -11 -27 -12 -26 -29 40 -10 37 -21
88 -25 113 l-6 45 68 -50 c38 -27 115 -77 170 -110z m-77 -219 c65 -171 132
-368 160 -468 12 -43 24 -87 26 -96 3 -11 0 -18 -9 -18 -15 0 -51 -36 -60 -61
-3 -10 -22 -19 -46 -23 -51 -8 -102 -57 -127 -121 -15 -40 -15 -48 -3 -56 8
-5 25 -6 39 -2 24 7 310 6 317 -1 2 -2 6 -20 10 -39 5 -33 3 -37 -23 -48 -16
-7 -51 -22 -79 -35 -27 -12 -122 -52 -210 -87 -88 -36 -257 -108 -375 -160
-221 -97 -409 -169 -538 -205 l-74 -21 5 22 c6 23 18 159 37 402 16 201 54
493 101 775 22 135 42 247 44 249 2 1 9 -17 15 -40 7 -24 47 -154 91 -289 55
-169 88 -293 109 -405 60 -321 61 -324 115 -311 20 5 25 13 25 36 0 16 11 63
24 104 14 42 28 91 32 111 3 19 10 38 15 41 5 3 9 13 9 22 0 9 7 30 16 47 8
16 16 42 17 56 1 15 4 25 6 23 3 -2 14 24 26 58 12 35 31 90 43 122 12 32 19
62 17 67 -3 4 4 23 15 41 11 18 20 39 20 46 0 8 6 28 14 45 40 86 104 245 110
272 8 37 28 87 32 82 2 -1 26 -62 54 -135z m7600 45 c0 -51 8 -112 20 -158 11
-41 20 -95 20 -120 0 -25 16 -122 35 -215 35 -173 52 -301 62 -456 l5 -88 -46
0 c-25 0 -92 -7 -147 -15 -114 -17 -174 -12 -166 14 18 61 58 216 67 265 8 40
15 54 21 45 9 -16 4 -96 -11 -165 -19 -82 -17 -83 123 -77 67 3 127 10 134 15
8 7 4 31 -18 96 -25 74 -110 395 -139 527 -5 22 -25 88 -43 147 -27 82 -31
108 -21 112 7 3 29 39 48 80 19 42 39 76 45 76 7 0 11 -31 11 -83z m-7136 -26
c49 -22 147 -59 218 -83 l129 -43 -5 -29 c-3 -16 -6 -50 -6 -77 0 -27 -4 -49
-10 -49 -5 0 -23 26 -39 58 -56 110 -79 108 -187 -18 -72 -85 -78 -89 -90 -71
-28 40 -53 113 -74 213 -12 57 -23 111 -25 121 -2 9 -2 17 -1 17 1 0 42 -18
90 -39z m4906 -44 c47 -14 130 -37 185 -52 271 -74 478 -184 641 -342 66 -63
88 -93 119 -158 94 -199 133 -342 114 -423 -4 -19 -21 -51 -38 -71 -17 -20
-49 -71 -72 -114 -28 -53 -60 -94 -97 -127 -99 -88 -290 -173 -500 -221 -184
-42 -592 -35 -813 15 -176 40 -292 104 -446 245 -66 61 -93 94 -132 166 -74
136 -85 179 -84 320 2 173 25 268 106 435 33 67 140 170 227 219 115 63 273
111 455 135 75 11 252 -4 335 -27z m-5016 -99 c36 -139 92 -257 124 -265 20
-5 29 -1 41 18 21 31 140 163 151 167 6 2 107 -156 113 -178 1 -3 -2 -23 -6
-46 l-7 -41 -113 -7 c-150 -9 -225 -21 -325 -55 l-82 -27 -10 35 c-5 20 -10
43 -10 51 0 8 -7 24 -15 34 -8 11 -15 28 -15 38 0 11 -7 32 -15 48 -12 23 -12
29 -1 33 8 3 19 23 26 44 13 41 112 255 116 251 1 -2 13 -47 28 -100z m641
-32 l100 -23 12 -114 c7 -63 19 -148 26 -189 14 -87 4 -83 162 -60 97 13 228
8 285 -12 19 -6 49 -21 66 -33 24 -17 54 -23 121 -28 164 -12 323 -54 323 -85
0 -24 -35 -79 -58 -91 -14 -7 -31 -4 -68 13 -30 15 -95 30 -168 40 -134 19
-159 29 -229 95 l-49 46 -82 -1 c-148 -2 -190 -7 -194 -25 -6 -30 28 -52 67
-45 20 4 71 10 114 13 l78 6 42 -46 c24 -26 61 -53 87 -63 67 -26 89 -43 110
-85 26 -50 15 -57 -95 -60 -112 -3 -141 10 -253 115 -44 41 -94 82 -113 91
-43 23 -122 28 -244 17 -106 -10 -105 -10 -192 39 l-42 24 -28 -26 c-37 -35
-71 -51 -168 -82 -87 -27 -304 -67 -367 -67 -35 0 -40 4 -52 33 -18 43 -9 104
18 122 35 25 228 84 328 100 115 19 162 19 221 1 67 -20 80 -7 83 78 2 36 5
70 9 76 3 5 8 60 11 121 3 62 7 116 10 121 7 11 15 10 129 -16z m1059 -96 c9
-38 16 -90 16 -115 0 -48 13 -85 31 -85 5 0 22 -9 37 -19 20 -14 67 -24 175
-36 157 -19 191 -17 350 16 74 16 124 20 200 17 120 -4 160 -22 193 -83 21
-40 36 -46 80 -32 14 5 30 1 47 -14 35 -27 35 -43 0 -34 -48 12 -247 14 -261
3 -10 -8 -21 -4 -45 20 -18 16 -51 35 -73 41 -92 24 -349 29 -371 7 -3 -2 -2
-13 1 -24 6 -19 15 -20 124 -19 64 1 149 -4 188 -11 66 -12 71 -15 80 -45 8
-30 13 -32 60 -37 28 -3 58 -11 67 -18 15 -13 32 -61 24 -69 -3 -2 -33 14 -68
36 -35 23 -70 41 -77 41 -7 0 -26 -10 -43 -22 -25 -19 -46 -24 -118 -26 -74
-3 -99 0 -163 22 -42 15 -112 33 -155 41 -85 16 -199 48 -252 71 -18 8 -79 21
-135 29 -168 23 -256 39 -256 47 0 4 22 19 50 33 35 18 65 25 106 25 l57 0 -7
58 c-4 31 -11 91 -14 132 -4 41 -11 80 -15 87 -4 7 1 14 15 19 29 9 121 21
130 17 3 -2 14 -34 22 -73z m-427 48 l211 1 7 -104 c4 -58 5 -111 2 -118 -3
-8 -27 -20 -54 -26 -26 -7 -62 -20 -79 -30 -50 -30 -101 -43 -121 -33 -45 24
-184 32 -300 17 l-92 -11 -10 50 c-6 28 -15 87 -21 131 -6 44 -13 93 -16 109
l-6 28 133 -8 c74 -4 229 -7 346 -6z m-1512 -548 c0 -23 -3 -25 -52 -26 -57
-1 -61 10 -15 39 38 24 67 18 67 -13z m8070 -60 c8 -13 -74 -235 -99 -269 -11
-15 -35 -73 -43 -108 -5 -21 -2 -24 62 -79 l30 -25 -40 6 c-22 3 -52 11 -67
16 -20 8 -46 8 -91 0 -118 -20 -130 -13 -38 23 l83 33 28 109 c30 116 54 187
89 271 22 50 23 51 52 41 16 -5 31 -13 34 -18z m-6021 -27 c7 -25 5 -38 -8
-58 -23 -35 -32 -31 -28 14 2 21 -1 49 -8 61 -10 20 -9 21 11 18 16 -2 26 -13
33 -35z m7588 15 c-30 -37 -101 -248 -133 -397 -10 -46 -20 -90 -23 -98 -4 -8
-9 -36 -11 -62 -3 -25 -10 -59 -15 -76 -5 -16 -11 -46 -14 -65 -2 -19 -7 -56
-11 -82 l-8 -48 -101 54 c-55 29 -113 56 -128 60 -35 8 -35 17 2 78 17 26 30
51 30 53 0 5 112 207 130 235 5 8 24 42 40 75 65 126 136 216 210 267 29 21
47 24 32 6z m-1391 -27 c52 -11 108 -21 124 -23 l30 -3 8 -120 c4 -66 5 -148
1 -183 -8 -83 -21 -89 -155 -72 -90 12 -111 11 -164 -4 -14 -4 -32 4 -59 27
l-40 34 26 69 c39 103 122 293 129 294 3 0 48 -9 100 -19z m283 -38 c11 -54
26 -296 20 -333 -5 -31 -2 -40 20 -57 l25 -20 -22 -20 c-57 -53 -171 -88 -311
-95 l-69 -4 32 27 c53 44 127 79 197 94 36 7 68 16 71 19 3 3 -2 32 -11 64
-11 41 -16 99 -16 199 0 139 0 142 23 146 12 2 25 5 29 6 3 0 9 -11 12 -26z
m-6872 -88 c-4 -38 -38 -75 -69 -75 -23 0 -23 1 -8 30 8 16 15 36 15 44 0 18
29 37 50 33 10 -2 14 -12 12 -32z"/>
<path id="path2" d="M5895 6980 c-4 -7 -10 -40 -13 -75 -4 -56 -2 -64 16 -74 22 -12 67 5
83 31 15 22 10 75 -8 96 -22 26 -68 38 -78 22z"/>
<path id="path3" d="M6404 6980 c-18 -7 -21 -17 -21 -68 -1 -79 17 -100 65 -76 48 23 55
92 15 137 -18 19 -27 20 -59 7z"/>
<path id="path4" d="M10441 4036 c-25 -27 -25 -53 1 -70 25 -16 83 42 73 73 -9 29 -46 27
-74 -3z"/>
<path id="path5" d="M10877 3360 c-149 -27 -276 -199 -296 -400 -8 -81 3 -229 19 -260 15
-29 119 -172 143 -198 64 -70 203 -102 358 -83 67 8 103 20 174 55 50 25 107
59 128 77 55 45 48 66 -32 94 -54 20 -121 66 -121 85 0 3 50 16 112 28 61 13
115 25 120 28 16 10 8 43 -18 73 l-26 31 34 16 c60 28 99 50 106 60 4 5 20 16
37 24 16 9 31 24 33 33 8 40 -29 65 -245 172 -120 59 -225 114 -233 121 -44
38 -198 61 -293 44z m255 -90 c40 -22 114 -59 163 -82 141 -67 269 -135 272
-145 5 -14 -63 -57 -142 -90 -38 -16 -70 -34 -72 -40 -2 -6 10 -27 27 -46 l31
-35 -53 -11 c-29 -6 -86 -17 -127 -24 -41 -6 -76 -17 -78 -23 -4 -11 140 -163
171 -180 17 -9 14 -13 -32 -43 -82 -52 -162 -74 -277 -75 -94 -1 -105 1 -167
32 -71 35 -139 101 -185 180 -22 37 -27 60 -31 142 -8 176 25 284 116 383 67
71 127 97 229 97 76 0 86 -3 155 -40z"/>
</g>
</svg>
